<?xml version="1.0" encoding="utf-8"?>
<!-- Generator: Adobe Illustrator 19.0.0, SVG Export Plug-In . SVG Version: 6.00 Build 0)  -->
<svg version="1.1" id="Layer_1" xmlns="http://www.w3.org/2000/svg" xmlns:xlink="http://www.w3.org/1999/xlink" x="0px" y="0px"
	 viewBox="0 0 200 200" enable-background="new 0 0 200 200" xml:space="preserve">
<g>
	<path id="XMLID_3_" fill="#C60651" d="M180.1,43.8L108.1,2.3c-4.6-2.8-12.2-2.8-16.9,0L61,19.8c-9.3,14.6-14.6,31.5-15.5,48.9
		c15.7-10.2,34.2-16,54.2-16s38.7,5.9,54.2,16c14.6,9.5,26.5,22.5,34.6,38V58.4C188.5,53.1,184.7,46.5,180.1,43.8z"/>
	<path id="XMLID_2_" fill="#7A003C" d="M108.1,197.6l72.1-41.6c4.6-2.8,8.4-9.3,8.4-14.6v-35.1c-8.1-15.5-20-28.4-34.6-37.9
		c1,18.6-3.3,37.7-13.3,55.1c-10,17.4-24.4,30.6-41,39.1c-15.5,7.9-32.9,11.7-50.3,11l41.8,24.1C95.9,200.4,103.5,200.4,108.1,197.6
		z"/>
	<path id="XMLID_1_" fill="#49182D" d="M10.7,58.4l0.2,83.1c0,5.3,3.8,11.9,8.4,14.5l30.5,17.6c17.4,0.7,34.6-3.1,50.1-11
		c-16.5-8.4-31-21.7-41.1-38.9c-10-17.4-14.3-36.5-13.4-55.1c0.9-17.4,6.2-34.2,15.7-49L19.2,43.8C14.5,46.5,10.7,53.1,10.7,58.4z"
		/>
</g>
<g id="XMLID_4_">
</g>
<g id="XMLID_5_">
</g>
<g id="XMLID_6_">
</g>
<g id="XMLID_7_">
</g>
<g id="XMLID_8_">
</g>
<g id="XMLID_9_">
</g>
<g id="XMLID_10_">
</g>
<g id="XMLID_11_">
</g>
<g id="XMLID_12_">
</g>
<g id="XMLID_13_">
</g>
<g id="XMLID_14_">
</g>
<g id="XMLID_15_">
</g>
<g id="XMLID_16_">
</g>
<g id="XMLID_17_">
</g>
<g id="XMLID_18_">
</g>
</svg>
