<svg id="Layer_1" width="450px" height="500px" data-name="Layer 1" xmlns="http://www.w3.org/2000/svg" xmlns:xlink="http://www.w3.org/1999/xlink">
	
	<defs>
		<style>.cls-2{fill:#7a113f;}.cls-3{fill:#c61052;}.cls-4{fill:#49182d;}</style>
	</defs>
	
	<g transform="translate(151,170)">
		<g id="icon">
		
		<path id="icon-md" class="cls-2" d="M266.64,220.57a84.26,84.26,0,0,1-45.85,79.22l0,0c-.47.24-.95.44-1.42.67-1,.5-2.06,1-3.1,1.46-.64.28-1.28.53-1.92.79-1.07.44-2.15.88-3.23,1.27-.66.24-1.32.44-2,.66-1.09.36-2.17.73-3.28,1.05-.71.21-1.42.37-2.13.56-1.07.28-2.14.57-3.22.81-.78.17-1.58.3-2.37.46-1,.2-2,.41-3.07.57s-1.82.23-2.73.34-1.84.25-2.77.33c-1.12.1-2.25.14-3.37.19-.73,0-1.46.1-2.19.11-1.86,0-3.73,0-5.6-.07l35.31,20.39a15.74,15.74,0,0,0,14.18,0l60.82-35.11A15.73,15.73,0,0,0,295.81,282V252.69A84.81,84.81,0,0,0,266.64,220.57Z" transform="translate(-145.81 -162.84)">
			<animateTransform id="icon-md-out" attributeType="XML" attributeName="transform" type="translate" from="-145.81 -162.84" to="-105.81 -122.84" values="-145.81 -162.84; -105.81 -122.84; -145.81 -162.84"  keyTimes="0; 0.2; 1" dur="1s" begin="0s" fill="freeze" repeatDur="indefinite" />
		</path>
		
		<path id="icon-lt" class="cls-3" d="M288.72,199.64,227.9,164.53a15.73,15.73,0,0,0-14.18,0l-25.64,14.8A84.78,84.78,0,0,0,175,220.56a84.45,84.45,0,0,1,120.8,32.13V211.93A15.73,15.73,0,0,0,288.72,199.64Z" transform="translate(-145.81 -162.84)">
		<animateTransform attributeType="XML" attributeName="transform" type="translate" from="-145.81 -162.84" to="-145.81 -222.84" values="-145.81 -162.84; -145.81 -222.84;-145.81 -162.84" keyTimes="0; 0.2; 1" dur="1s" begin="0s" fill="freeze" repeatDur="indefinite" />
		</path>
		
		<path id="icon-dk" class="cls-4" d="M186.18,266.89A83.93,83.93,0,0,1,175,220.56a84.78,84.78,0,0,1,13.07-41.23L152.9,199.64a15.73,15.73,0,0,0-7.09,12.28V282a15.75,15.75,0,0,0,7.09,12.29L178.42,309c1.87.09,3.74.1,5.6.07.73,0,1.46-.08,2.19-.11,1.13-.05,2.25-.09,3.37-.19.93-.08,1.85-.21,2.77-.33s1.83-.2,2.73-.34,2-.37,3.07-.57c.79-.15,1.58-.28,2.37-.46,1.08-.24,2.15-.53,3.22-.81.71-.19,1.42-.35,2.13-.56,1.1-.32,2.19-.69,3.28-1.05.66-.22,1.33-.43,2-.66,1.09-.39,2.16-.84,3.23-1.27.64-.26,1.29-.51,1.92-.79,1-.46,2.07-1,3.1-1.46l1.39-.68A84,84,0,0,1,186.18,266.89Z" transform="translate(-145.81 -162.84)">
		<animateTransform attributeType="XML" attributeName="transform" type="translate" from="-145.81 -162.84" to="-205.81 -162.84" values="-145.81 -162.84; -205.81 -162.84; -145.81 -162.84" keyTimes="0; 0.2; 1" dur="1s" begin="0s" fill="freeze" repeatDur="indefinite" id="icon-anim" />
		</path>
		</g>
	</g>
	
	<animateTransform xlink:href="#icon" attributeType="XML" attributeName="transform" type="rotate" from="0 75 85" to="360 75 85" dur="1s" begin="0s" repeatDur="indefinite" />
	
	</svg>
