<?xml version="1.0" encoding="utf-8"?>
<!-- Generator: Adobe Illustrator 18.1.1, SVG Export Plug-In . SVG Version: 6.00 Build 0)  -->
<svg version="1.1" id="Layer_1" xmlns="http://www.w3.org/2000/svg" xmlns:xlink="http://www.w3.org/1999/xlink" x="0px" y="0px"
	 viewBox="0 0 379.3 90" enable-background="new 0 0 379.3 90" xml:space="preserve">
<path fill="#393636" d="M119.2,27.6c0.4,0,0.7,0.1,0.7,0.2c0.1,0.1,0.1,0.3,0.1,0.4c0,0.2-0.1,0.3-0.2,0.4c-0.1,0.1-0.5,0.2-1,0.2
	c-0.9,0-1.7,0.1-2.3,0.2c-0.6,0.1-1.1,0.4-1.4,0.7c-0.3,0.3-0.6,0.8-0.7,1.3c-0.1,0.5-0.2,1.2-0.2,2v25.2c0,1.4,0.2,2.5,0.7,3.1
	c0.5,0.6,1.4,0.9,2.7,0.9h4.5c1,0,2-0.1,3-0.3c1-0.2,2-0.5,3-1c0.9-0.5,1.7-1.2,2.5-2c0.8-0.9,1.5-1.8,2-2.6c0.6-0.9,1-1.6,1.4-2.3
	c0.3-0.7,0.5-1,0.6-1.1c0.2-0.3,0.3-0.6,0.5-0.7c0.2-0.1,0.3-0.2,0.5-0.2c0.4,0,0.6,0.2,0.6,0.5c0,0.1,0,0.3-0.1,0.4
	c-0.1,0.1-0.1,0.4-0.2,0.7l-1.8,5.9c-0.2,0.7-0.3,1.2-0.4,1.8c-0.1,0.5-0.2,1-0.3,1.4c-0.1,0.4-0.2,0.6-0.3,0.7
	c-0.1,0.1-0.4,0.1-0.9,0.1h-20.6c-1.9,0-3.4,0-4.3,0.1c-0.9,0-1.6,0-2.1,0c-0.4,0-0.7-0.1-0.8-0.2c-0.1-0.1-0.2-0.3-0.2-0.4
	c0-0.2,0.1-0.3,0.3-0.4s0.5-0.2,1-0.2c1.1,0,2-0.2,2.6-0.7c0.6-0.4,0.9-1.3,0.9-2.6v-27c0-1.3-0.3-2.2-0.9-2.6
	c-0.3-0.2-0.6-0.4-1.4-0.4c-5.8,0-18.2,0-18.2,0v30c0,1.3,0.4,2.2,1.1,2.7c0.7,0.4,1.8,0.6,3.3,0.6c0.5,0,0.8,0.1,1,0.2
	c0.2,0.2,0.3,0.3,0.3,0.5c0,0.1,0,0.3-0.1,0.4c-0.1,0.1-0.4,0.2-0.8,0.2c-0.5,0-1.3,0-2.6-0.1c-1.3,0-2.9,0-4.8,0
	c-1.9,0-3.5,0-4.8,0c-1.3,0-2.1,0.1-2.6,0.1c-0.4,0-0.7-0.1-0.8-0.2c-0.1-0.1-0.2-0.3-0.2-0.4c0-0.2,0.1-0.3,0.3-0.5
	c0.2-0.2,0.5-0.2,1-0.2c0.5,0,1,0,1.6-0.1c0.5-0.1,1-0.2,1.4-0.4c0.4-0.2,0.8-0.5,1-0.9c0.3-0.4,0.4-0.9,0.4-1.6V29h-4.4
	c-1.8,0-3.2,0.3-4.4,0.8c-1.2,0.5-2.2,1.2-3,2c-0.8,0.8-1.4,1.6-1.9,2.4c-0.5,0.8-0.9,1.6-1.3,2.2c-0.1,0.2-0.2,0.4-0.3,0.5
	C67.7,37,67.5,37,67.3,37c-0.3,0-0.5-0.2-0.5-0.5c0-0.1,0-0.3,0.1-0.6c0.1-0.3,0.2-0.7,0.3-1.2c0.1-0.4,0.2-0.9,0.4-1.5
	c0.1-0.5,0.3-1,0.4-1.5c0.1-0.3,0.2-0.7,0.3-1.2c0.1-0.4,0.2-0.9,0.3-1.3c0.1-0.4,0.2-0.8,0.3-1.1c0.1-0.3,0.1-0.5,0.1-0.6
	c0.1-0.2,0.1-0.4,0.2-0.6c0.1-0.1,0.2-0.2,0.5-0.2c0.3,0,0.5,0.1,0.7,0.2c0.2,0.1,0.5,0.2,1,0.3c0.5,0.1,1.2,0.2,2.1,0.3
	c0.9,0.1,2.3,0.2,4.2,0.2 M182.9,27.8c-0.1-0.1-0.3-0.2-0.7-0.2c-0.2,0-0.4,0-0.8,0c-0.4,0-0.8,0-1.2,0c-0.4,0-0.9,0-1.3,0
	c-0.4,0-0.9,0-1.3,0c-1.8,0-3.1,0-3.8,0c-0.7,0-1.2,0-1.4,0c-0.4,0-0.6,0.1-0.7,0.2c-0.1,0.1-0.1,0.2-0.1,0.4c0,0.2,0.1,0.3,0.2,0.5
	c0.2,0.1,0.5,0.2,0.9,0.2c0.8,0,1.5,0.2,2.1,0.7c0.6,0.5,0.9,1.2,0.9,2.3c0,0.7-0.1,1.4-0.3,2.1c-0.2,0.7-0.4,1.4-0.7,2.2l-6.7,20.1
	l-8.4-21.7c-0.3-0.7-0.5-1.3-0.7-1.9c-0.2-0.6-0.3-1.1-0.3-1.6c0-0.9,0.4-1.5,1.1-1.8c0.7-0.3,1.6-0.4,2.7-0.4
	c0.3,0,0.6-0.1,0.7-0.2c0.2-0.1,0.2-0.3,0.2-0.4c0-0.4-0.3-0.6-0.8-0.6c-0.2,0-0.5,0-0.8,0c-0.3,0-0.8,0-1.3,0c-0.6,0-1.2,0-2.1,0
	c-0.8,0-1.9,0-3.1,0c-1.2,0-2.2,0-3,0c-0.8,0-1.4,0-1.8,0c-0.5,0-0.8,0-1.1,0c-0.3,0-0.6,0-0.8,0c-0.3,0-0.5,0.1-0.6,0.2
	s-0.1,0.3-0.1,0.5c0,0.1,0.1,0.2,0.2,0.4c0.1,0.1,0.4,0.2,0.8,0.2c1.3,0,2.3,0.3,2.9,0.9c0.6,0.6,1.2,1.4,1.6,2.5l1.9,4.9l-7.8,19.2
	l-8.4-21.8c-0.2-0.4-0.4-1-0.6-1.7c-0.2-0.7-0.3-1.3-0.3-1.9c0-1.4,1-2.1,3-2.1c0.3,0,0.5-0.1,0.7-0.2c0.2-0.1,0.2-0.3,0.2-0.4
	c0-0.4-0.3-0.6-0.8-0.6c-0.2,0-0.4,0-0.7,0c-0.3,0-0.6,0-1.1,0c-0.5,0-1.1,0-1.8,0c-0.8,0-1.7,0-3,0c-1.2,0-2.1,0-2.9,0
	c-0.8,0-1.4,0-1.9,0c-0.5,0-0.9,0-1.2,0c-0.3,0-0.5,0-0.7,0c-0.3,0-0.5,0.1-0.6,0.2c-0.1,0.1-0.1,0.3-0.1,0.4c0,0.1,0.1,0.2,0.2,0.4
	c0.1,0.1,0.4,0.2,0.7,0.3c1.1,0.1,2,0.4,2.8,1c0.8,0.6,1.4,1.4,1.8,2.4l12.1,31.3c0.2,0.4,0.3,0.7,0.4,0.9c0.1,0.1,0.2,0.2,0.4,0.2
	c0.2,0,0.3-0.1,0.4-0.2c0.1-0.1,0.3-0.5,0.5-1l9.5-23.9l9.7,24.1c0.2,0.4,0.3,0.7,0.4,0.9c0.1,0.1,0.2,0.2,0.4,0.2
	c0.2,0,0.3-0.1,0.5-0.2c0.1-0.1,0.3-0.5,0.5-1.1l9.7-28.7c0.3-1,0.7-1.9,1.2-2.6c0.4-0.7,0.9-1.3,1.3-1.7c0.5-0.4,0.9-0.8,1.4-1
	c0.5-0.2,0.9-0.4,1.3-0.4c0.7-0.1,1-0.3,1-0.6C183.1,28.1,183,27.9,182.9,27.8z"/>
<path fill="#918F90" d="M212.5,50c-0.5-1-1.2-1.8-2.1-2.5c-0.9-0.7-1.8-1.3-2.9-1.7c-1.1-0.5-2.2-0.9-3.4-1.2
	c-1.2-0.4-2.3-0.8-3.4-1.1c-1.1-0.4-2.1-0.9-2.9-1.4c-0.9-0.6-1.5-1.3-2.1-2.1c-0.5-0.8-0.8-1.8-0.8-3.1c0-0.9,0.2-1.8,0.5-2.7
	c0.4-0.9,0.9-1.6,1.6-2.3c0.7-0.7,1.5-1.2,2.5-1.5c1-0.4,2.2-0.6,3.5-0.6c2.5,0,4.7,0.4,6.8,1.3c0.1,2.9,0.2,4.6,0.2,4.8
	c0,0.8,0.4,1.2,1.1,1.2h1.3v-7.5c-3.3-1.4-6.4-2.1-9.4-2.1c-1.7,0-3.2,0.3-4.5,0.8c-1.3,0.5-2.4,1.2-3.3,2.1c-0.9,0.9-1.6,1.9-2,3
	c-0.5,1.1-0.7,2.3-0.7,3.5c0,1.6,0.3,2.9,0.8,3.9c0.5,1,1.2,1.9,2.1,2.6c0.9,0.7,1.8,1.3,2.9,1.7c1.1,0.4,2.2,0.8,3.4,1.2
	c1.1,0.4,2.3,0.7,3.4,1.1c1.1,0.4,2.1,0.8,2.9,1.4c0.9,0.6,1.5,1.3,2.1,2.1c0.5,0.8,0.8,1.9,0.8,3.2c0,1.2-0.2,2.3-0.6,3.3
	c-0.4,1-1,1.9-1.8,2.7c-0.8,0.8-1.7,1.4-2.9,1.8c-1.1,0.4-2.4,0.7-3.9,0.7c-2.9,0-5.3-0.5-7.2-1.4c0-0.7-0.1-1.5-0.1-2.3
	c0-0.8-0.1-1.5-0.1-2.1c0-0.6,0-0.9,0-0.9c0-0.8-0.4-1.2-1.1-1.2h-1.2v6.8v0.6v0.7c3.2,1.3,6.4,2,9.8,2c1.8,0,3.5-0.3,4.9-0.9
	c1.4-0.6,2.7-1.4,3.7-2.4c1-1,1.8-2.2,2.3-3.5c0.5-1.3,0.8-2.8,0.8-4.3C213.3,52.2,213,51,212.5,50z"/>
<path fill="#918F90" d="M228,62.8c-1.5,0-2.9-0.3-4-0.8c-1.1-0.5-2.1-1.3-2.9-2.3c-0.8-1-1.3-2.2-1.7-3.5c-0.4-1.4-0.6-2.9-0.6-4.6
	c0-1.7,0.2-3.2,0.6-4.6c0.4-1.4,1-2.6,1.7-3.6c0.8-1,1.7-1.7,2.9-2.3c1.1-0.5,2.5-0.8,4-0.8c1.5,0,2.9,0.3,4,0.8
	c1.1,0.5,2.1,1.3,2.9,2.3c0.8,1,1.3,2.2,1.7,3.6c0.4,1.4,0.6,2.9,0.6,4.6c0,1.7-0.2,3.3-0.6,4.6c-0.4,1.4-0.9,2.6-1.7,3.5
	c-0.8,1-1.7,1.7-2.9,2.3C230.8,62.5,229.5,62.8,228,62.8z M228,38.3c-1.8,0-3.5,0.3-4.9,0.9c-1.4,0.6-2.7,1.5-3.7,2.7
	c-1,1.1-1.8,2.5-2.3,4.2c-0.5,1.6-0.8,3.4-0.8,5.4c0,2,0.3,3.8,0.8,5.4c0.5,1.6,1.3,3,2.3,4.1c1,1.1,2.2,2,3.7,2.7
	c1.4,0.6,3.1,0.9,4.9,0.9c1.8,0,3.5-0.3,4.9-0.9c1.4-0.6,2.7-1.5,3.7-2.7c1-1.1,1.8-2.5,2.3-4.1c0.5-1.6,0.8-3.4,0.8-5.4
	c0-2-0.3-3.8-0.8-5.4c-0.5-1.6-1.3-3-2.3-4.2c-1-1.2-2.2-2-3.7-2.7C231.4,38.7,229.8,38.3,228,38.3z"/>
<path fill="#918F90" d="M249.9,62.4c-0.1,0-0.2,0-0.3,0c-0.1,0-0.2,0-0.4,0c-0.1,0-0.4,0-0.8,0c-0.4,0-0.8,0-1.3-0.1V26.9h-2.4H241
	v1c0,0.6,0.3,0.9,1,0.9c0.1,0,0.2,0,0.3,0c0.1,0,0.2,0,0.4,0c0.1,0,0.4,0,0.8,0c0.4,0,0.8,0,1.2,0.1v33.4c-0.6,0-1.1,0-1.5,0.1
	c-0.4,0-0.7,0-0.8,0c-0.1,0-0.2,0-0.3,0c-0.7,0-1,0.3-1,0.9v1h3.7h2.4h3.7v-1C250.9,62.8,250.6,62.4,249.9,62.4z"/>
<path fill="#918F90" d="M262.2,62.4c-0.1,0-0.2,0-0.3,0c-0.1,0-0.2,0-0.4,0c-0.1,0-0.4,0-0.8,0c-0.4,0-0.8,0-1.3-0.1V38.8h-2.4h-3.7
	v1c0,0.6,0.3,0.9,1,0.9c0.1,0,0.2,0,0.3,0c0.1,0,0.2,0,0.4,0c0.1,0,0.4,0,0.8,0c0.4,0,0.8,0,1.3,0v21.5c-0.6,0-1.1,0-1.5,0.1
	c-0.4,0-0.7,0-0.8,0c-0.1,0-0.2,0-0.3,0c-0.7,0-1,0.3-1,0.9v1h3.7h2.4h3.7v-1C263.3,62.8,262.9,62.4,262.2,62.4z M256.7,31.5
	c0.2,0.2,0.4,0.4,0.7,0.5c0.3,0.1,0.6,0.2,0.9,0.2c0.3,0,0.6-0.1,0.9-0.2c0.3-0.1,0.5-0.3,0.7-0.5c0.2-0.2,0.4-0.4,0.5-0.7
	c0.1-0.3,0.2-0.6,0.2-0.9c0-0.3-0.1-0.6-0.2-0.9c-0.1-0.3-0.3-0.5-0.5-0.7c-0.2-0.2-0.4-0.4-0.7-0.5c-0.3-0.1-0.6-0.2-0.9-0.2
	c-0.3,0-0.6,0.1-0.9,0.2c-0.3,0.1-0.5,0.3-0.7,0.5c-0.2,0.2-0.4,0.5-0.5,0.7c-0.1,0.3-0.2,0.6-0.2,0.9c0,0.3,0.1,0.6,0.2,0.9
	C256.4,31,256.5,31.3,256.7,31.5z"/>
<path fill="#918F90" d="M284.4,60.2c-0.1-0.2-0.3-0.3-0.5-0.3c-0.2,0-0.4,0.1-0.8,0.4c-0.3,0.3-0.7,0.6-1.3,1
	c-0.5,0.3-1.2,0.7-2.1,1c-0.8,0.3-1.9,0.4-3.1,0.4c-1.3,0-2.6-0.2-3.7-0.7c-1.1-0.5-2-1.2-2.8-2.2c-0.8-1-1.4-2.1-1.8-3.5
	c-0.4-1.4-0.6-3-0.6-4.8c0-1.7,0.2-3.3,0.6-4.7c0.4-1.4,1-2.6,1.8-3.6c0.8-1,1.7-1.7,2.9-2.2c1.1-0.5,2.5-0.8,3.9-0.8
	c1.3,0,2.7,0.3,4.4,0.9c0,0.7,0.1,1.3,0.1,1.9c0.1,0.6,0.1,1.1,0.1,1.4c0,0.4,0.1,0.6,0.1,0.6c0,0.8,0.4,1.2,1.1,1.2h1.3v-6.5
	l-1.3-0.4c-0.9-0.3-1.9-0.5-3.1-0.8c-1.2-0.3-2.1-0.4-2.7-0.4c-1.9,0-3.5,0.3-4.9,1c-1.4,0.6-2.6,1.5-3.6,2.7
	c-1,1.2-1.7,2.6-2.3,4.2c-0.5,1.6-0.8,3.4-0.8,5.3c0,2.1,0.3,3.9,0.8,5.6c0.5,1.6,1.3,3,2.3,4.1c1,1.1,2.1,2,3.5,2.6
	c1.3,0.6,2.8,0.9,4.5,0.9c1,0,1.9-0.1,2.8-0.3c0.9-0.2,1.7-0.4,2.5-0.8c0.8-0.3,1.4-0.7,2-1.2c0.6-0.4,1.1-0.9,1.5-1.4L284.4,60.2z"
	/>
<path fill="#918F90" d="M296.3,62.4c-0.1,0-0.2,0-0.3,0c-0.1,0-0.2,0-0.4,0c-0.2,0-0.4,0-0.8,0c-0.4,0-0.8,0-1.3-0.1V38.8h-2.4h-3.7
	v1c0,0.6,0.3,0.9,1,0.9c0.1,0,0.2,0,0.3,0c0.1,0,0.2,0,0.4,0c0.1,0,0.4,0,0.8,0c0.4,0,0.8,0,1.3,0v21.5c-0.6,0-1.1,0-1.5,0.1
	c-0.4,0-0.7,0-0.8,0c-0.1,0-0.2,0-0.3,0c-0.7,0-1,0.3-1,0.9v1h3.7h2.4h3.7v-1C297.3,62.8,297,62.4,296.3,62.4z M290.8,31.5
	c0.2,0.2,0.4,0.4,0.7,0.5c0.3,0.1,0.6,0.2,0.9,0.2c0.3,0,0.6-0.1,0.9-0.2c0.3-0.1,0.5-0.3,0.7-0.5c0.2-0.2,0.4-0.4,0.5-0.7
	c0.1-0.3,0.2-0.6,0.2-0.9c0-0.3-0.1-0.6-0.2-0.9c-0.1-0.3-0.3-0.5-0.5-0.7c-0.2-0.2-0.4-0.4-0.7-0.5c-0.3-0.1-0.6-0.2-0.9-0.2
	c-0.3,0-0.6,0.1-0.9,0.2c-0.3,0.1-0.5,0.3-0.7,0.5c-0.2,0.2-0.4,0.5-0.5,0.7c-0.1,0.3-0.2,0.6-0.2,0.9c0,0.3,0.1,0.6,0.2,0.9
	C290.4,31,290.6,31.3,290.8,31.5z"/>
<path fill="#918F90" d="M308,64.8c1.1,0,2.1-0.2,3.1-0.7c1-0.4,1.8-1,2.5-1.7l-0.7-1.1c-0.1-0.2-0.3-0.3-0.4-0.3
	c-0.1,0-0.3,0.1-0.5,0.3c-0.2,0.2-0.5,0.4-0.8,0.6c-0.3,0.2-0.7,0.4-1.2,0.6c-0.4,0.2-1,0.3-1.6,0.3c-0.5,0-1-0.1-1.4-0.2
	c-0.4-0.2-0.8-0.4-1.1-0.7c-0.3-0.3-0.6-0.7-0.7-1.3c-0.2-0.5-0.3-1.1-0.3-1.8V41.4h8.1v-1.8H305v-9.8h-1.2c-0.2,0-0.3,0.1-0.4,0.2
	c-0.1,0.1-0.2,0.3-0.2,0.4l-0.6,9.2l-4.4,0.3v0.9c0,0.2,0.1,0.3,0.2,0.4c0.1,0.1,0.3,0.2,0.5,0.2h3.7v17.5c0,2,0.5,3.5,1.5,4.5
	C304.9,64.3,306.3,64.8,308,64.8z"/>
<path fill="#918F90" d="M326.2,62.8c-1.5,0-2.9-0.3-4-0.8c-1.1-0.5-2.1-1.3-2.9-2.3c-0.8-1-1.3-2.2-1.7-3.5
	c-0.4-1.4-0.6-2.9-0.6-4.6c0-1.7,0.2-3.2,0.6-4.6c0.4-1.4,1-2.6,1.7-3.6c0.8-1,1.7-1.7,2.9-2.3c1.1-0.5,2.5-0.8,4-0.8
	c1.5,0,2.9,0.3,4,0.8c1.1,0.5,2.1,1.3,2.9,2.3c0.8,1,1.3,2.2,1.7,3.6c0.4,1.4,0.6,2.9,0.6,4.6c0,1.7-0.2,3.3-0.6,4.6
	c-0.4,1.4-0.9,2.6-1.7,3.5c-0.8,1-1.7,1.7-2.9,2.3C329,62.5,327.7,62.8,326.2,62.8z M326.2,38.3c-1.8,0-3.5,0.3-4.9,0.9
	c-1.4,0.6-2.7,1.5-3.7,2.7c-1,1.1-1.8,2.5-2.3,4.2c-0.5,1.6-0.8,3.4-0.8,5.4c0,2,0.3,3.8,0.8,5.4c0.5,1.6,1.3,3,2.3,4.1
	c1,1.1,2.2,2,3.7,2.7c1.4,0.6,3.1,0.9,4.9,0.9c1.8,0,3.5-0.3,4.9-0.9c1.4-0.6,2.7-1.5,3.7-2.7c1-1.1,1.8-2.5,2.3-4.1
	c0.5-1.6,0.8-3.4,0.8-5.4c0-2-0.3-3.8-0.8-5.4c-0.5-1.6-1.3-3-2.3-4.2c-1-1.2-2.2-2-3.7-2.7C329.7,38.7,328,38.3,326.2,38.3z"/>
<path fill="#918F90" d="M355.9,38.6c-0.7-0.2-1.4-0.2-2.1-0.2c-2,0-3.7,0.6-5.1,1.8c-1.4,1.2-2.5,2.8-3.3,4.9l-0.2-5.4
	c0-0.3-0.1-0.5-0.2-0.6c-0.1-0.1-0.3-0.2-0.6-0.2h-1.3l0,0h-3.7v1c0,0.7,0.4,0.9,1,0.9c0.3,0,0.6,0,2.7,0.1v21.5
	c-2.1,0.1-2.4,0.1-2.7,0.1c-0.6,0-1,0.3-1,0.9v1h3.7h2.4v0h3.7v-1c0-0.7-0.4-0.9-1-0.9c-0.3,0-0.6,0-2.7-0.1V47.7
	c0.8-2.3,1.8-4,3-5.2c1.2-1.2,2.8-1.8,4.8-1.8c0.5,0,1,0,1.4,0.1c0.4,0.1,0.8,0.1,1,0.2c0.3,0.1,0.5,0.2,0.7,0.2
	c0.2,0.1,0.3,0.1,0.4,0.1c0.3,0,0.5-0.1,0.5-0.4l0.3-1.7C357.2,39,356.6,38.7,355.9,38.6z"/>
<path fill="#918F90" d="M376.4,54.2c-0.4-0.7-1-1.3-1.6-1.8c-0.7-0.5-1.4-0.9-2.3-1.2c-0.8-0.3-1.7-0.6-2.6-0.9
	c-0.9-0.3-1.7-0.5-2.6-0.8c-0.8-0.3-1.6-0.6-2.3-1c-0.7-0.4-1.2-0.8-1.6-1.4c-0.4-0.5-0.6-1.2-0.6-2c0-0.7,0.2-1.3,0.4-1.9
	c0.3-0.6,0.7-1.1,1.3-1.6c0.5-0.4,1.2-0.8,2-1.1c0.8-0.3,1.6-0.4,2.5-0.4c1.3,0,2.7,0.2,4.1,0.7c0,0.6,0.1,1.2,0.1,1.8
	c0,0.6,0.1,1,0.1,1.3c0,0.3,0.1,0.5,0.1,0.6c0,0.8,0.4,1.2,1.1,1.2h1.2v-6.1c-2.7-0.9-5-1.4-6.8-1.4c-1.3,0-2.5,0.2-3.5,0.6
	c-1,0.4-1.9,0.9-2.7,1.5c-0.7,0.6-1.3,1.4-1.7,2.2c-0.4,0.8-0.6,1.7-0.6,2.6c0,1.1,0.2,2,0.6,2.7c0.4,0.7,1,1.3,1.6,1.8
	c0.7,0.5,1.4,0.9,2.3,1.2c0.8,0.3,1.7,0.6,2.6,0.9c0.9,0.3,1.8,0.6,2.6,0.8c0.8,0.3,1.6,0.6,2.3,1c0.7,0.4,1.2,0.9,1.6,1.4
	c0.4,0.6,0.6,1.3,0.6,2.1c0,0.8-0.1,1.5-0.4,2.2c-0.3,0.7-0.7,1.3-1.2,1.8c-0.6,0.5-1.2,0.9-2.1,1.2c-0.8,0.3-1.8,0.4-2.9,0.4
	c-1.9,0-3.6-0.3-5-0.8c0-0.6-0.1-1.3-0.1-1.8c0-0.6-0.1-1-0.1-1.4c0-0.3-0.1-0.5-0.1-0.6c0-0.8-0.4-1.2-1.1-1.2h-1.3v6.2
	c2.5,0.9,5,1.4,7.6,1.4c1.4,0,2.7-0.2,3.8-0.6c1.1-0.4,2.1-1,2.8-1.7c0.8-0.7,1.3-1.5,1.8-2.5c0.4-1,0.6-2,0.6-3.1
	C377,55.8,376.8,55,376.4,54.2z"/>
<g>
	<path fill="#C60651" d="M59.3,25.3L34.1,10.7c-1.6-0.9-4.3-0.9-5.9,0l-10.6,6.1C14.3,22,12.5,27.9,12.1,34c5.5-3.5,12-5.6,19-5.6
		c7,0,13.5,2.1,19,5.6c5.1,3.3,9.3,7.9,12.1,13.3V30.4C62.3,28.5,61,26.2,59.3,25.3z"/>
	<path fill="#7A003C" d="M34.1,79.2l25.2-14.6c1.6-0.9,2.9-3.2,2.9-5.1l0-12.3c-2.8-5.4-7-10-12.1-13.2c0.3,6.5-1.1,13.2-4.6,19.3
		C42,59.3,37,63.9,31.2,66.9c-5.4,2.8-11.5,4.1-17.6,3.8l14.7,8.4C29.8,80.1,32.5,80.1,34.1,79.2z"/>
	<path fill="#49182D" d="M0,30.4l0,29.1c0,1.9,1.3,4.2,3,5.1l10.7,6.1c6.1,0.3,12.1-1.1,17.5-3.9c-5.8-3-10.9-7.6-14.4-13.6
		c-3.5-6.1-5-12.8-4.7-19.3c0.3-6.1,2.2-12,5.5-17.2L2.9,25.3C1.3,26.2,0,28.5,0,30.4z"/>
</g>
<g>
</g>
<g>
</g>
<g>
</g>
<g>
</g>
<g>
</g>
<g>
</g>
<g>
</g>
<g>
</g>
<g>
</g>
<g>
</g>
<g>
</g>
<g>
</g>
<g>
</g>
<g>
</g>
<g>
</g>
</svg>
