<?xml version="1.0" encoding="utf-8"?>
<!-- Generator: Adobe Illustrator 18.1.1, SVG Export Plug-In . SVG Version: 6.00 Build 0)  -->
<svg version="1.1" id="Layer_1" xmlns="http://www.w3.org/2000/svg" xmlns:xlink="http://www.w3.org/1999/xlink" x="0px" y="0px"
	 viewBox="0 0 346.9 160" enable-background="new 0 0 346.9 160" xml:space="preserve">
<g>
	<path fill="#918F90" d="M154.7,122.9c-0.6-1.2-1.4-2.2-2.4-3c-1-0.8-2.1-1.5-3.4-2c-1.3-0.5-2.6-1-3.9-1.5
		c-1.4-0.4-2.7-0.9-3.9-1.3c-1.3-0.5-2.4-1-3.4-1.7c-1-0.7-1.8-1.5-2.4-2.4c-0.6-0.9-0.9-2.1-0.9-3.6c0-1.1,0.2-2.2,0.6-3.2
		c0.4-1,1-1.9,1.8-2.6c0.8-0.8,1.8-1.4,3-1.8c1.2-0.4,2.5-0.7,4.1-0.7c2.9,0,5.5,0.5,7.9,1.5c0.2,3.4,0.3,5.3,0.3,5.6
		c0,1,0.5,1.5,1.3,1.5h1.5v-8.7c-3.8-1.6-7.5-2.5-11-2.5c-2,0-3.7,0.3-5.2,0.9c-1.5,0.6-2.8,1.4-3.9,2.4c-1,1-1.8,2.2-2.4,3.5
		c-0.5,1.3-0.8,2.7-0.8,4.1c0,1.8,0.3,3.3,0.9,4.6c0.6,1.2,1.4,2.2,2.4,3c1,0.8,2.1,1.5,3.4,2c1.3,0.5,2.6,1,3.9,1.4
		c1.3,0.4,2.6,0.8,3.9,1.3c1.3,0.4,2.4,1,3.4,1.6c1,0.6,1.8,1.5,2.4,2.4c0.6,1,0.9,2.2,0.9,3.7c0,1.4-0.2,2.7-0.7,3.9
		c-0.5,1.2-1.2,2.3-2.1,3.1c-0.9,0.9-2,1.6-3.4,2.1c-1.3,0.5-2.8,0.8-4.5,0.8c-3.3,0-6.2-0.5-8.5-1.6c0-0.8-0.1-1.7-0.1-2.7
		c-0.1-1-0.1-1.8-0.1-2.4c0-0.6,0-1-0.1-1.1c-0.1-1-0.5-1.5-1.3-1.5h-1.5v8v0.7v0.8c3.7,1.5,7.5,2.3,11.4,2.3c2.2,0,4.1-0.3,5.8-1
		c1.7-0.7,3.1-1.6,4.3-2.7c1.2-1.2,2-2.5,2.7-4.1c0.6-1.6,0.9-3.3,0.9-5C155.6,125.5,155.3,124.1,154.7,122.9z"/>
	<path fill="#918F90" d="M172.8,137.8c-1.8,0-3.3-0.3-4.7-0.9c-1.3-0.6-2.4-1.5-3.3-2.6c-0.9-1.1-1.6-2.5-2-4.1
		c-0.4-1.6-0.7-3.4-0.7-5.4c0-2,0.2-3.8,0.7-5.4c0.5-1.6,1.1-3,2-4.2c0.9-1.1,2-2,3.3-2.7c1.3-0.6,2.9-0.9,4.7-0.9
		c1.8,0,3.3,0.3,4.7,0.9c1.3,0.6,2.4,1.5,3.3,2.7c0.9,1.1,1.6,2.5,2,4.2c0.4,1.6,0.7,3.4,0.7,5.4c0,2-0.2,3.8-0.7,5.4
		c-0.4,1.6-1.1,3-2,4.1c-0.9,1.1-2,2-3.3,2.6C176.1,137.5,174.6,137.8,172.8,137.8z M172.8,109.3c-2.1,0-4.1,0.4-5.7,1.1
		c-1.7,0.7-3.1,1.8-4.3,3.1c-1.2,1.3-2.1,3-2.7,4.8c-0.6,1.9-0.9,4-0.9,6.4c0,2.3,0.3,4.5,0.9,6.3c0.6,1.9,1.5,3.5,2.7,4.8
		c1.2,1.3,2.6,2.4,4.3,3.1c1.7,0.7,3.6,1.1,5.7,1.1c2.1,0,4.1-0.4,5.8-1.1c1.7-0.7,3.1-1.8,4.3-3.1c1.2-1.3,2.1-3,2.7-4.8
		c0.6-1.9,0.9-4,0.9-6.3c0-2.3-0.3-4.5-0.9-6.4c-0.6-1.9-1.5-3.5-2.7-4.8c-1.2-1.3-2.6-2.4-4.3-3.1
		C176.8,109.7,174.9,109.3,172.8,109.3z"/>
	<path fill="#918F90" d="M198.4,137.4c-0.1,0-0.2,0-0.3,0c-0.1,0-0.3,0-0.5,0c-0.2,0-0.5,0-0.9,0c-0.4,0-0.9,0-1.5-0.1V96h-2.9H188
		v1.2c0,0.7,0.4,1,1.2,1.1c0.1,0,0.2,0,0.3,0c0.1,0,0.3,0,0.5,0c0.2,0,0.5,0,0.9,0c0.4,0,0.9,0,1.5,0.1v38.9c-0.7,0-1.3,0.1-1.8,0.1
		c-0.5,0-0.8,0-1,0c-0.2,0-0.3,0-0.4,0c-0.8,0-1.2,0.4-1.2,1.1v1.2h4.3h2.9h4.3v-1.2C199.6,137.8,199.2,137.4,198.4,137.4z"/>
	<path fill="#918F90" d="M212.8,137.4c-0.1,0-0.2,0-0.3,0c-0.1,0-0.3,0-0.5,0c-0.2,0-0.5,0-0.9,0c-0.4,0-0.9,0-1.5-0.1v-27.5h-2.9
		h-4.3v1.2c0,0.7,0.4,1,1.2,1.1c0.1,0,0.2,0,0.3,0c0.1,0,0.3,0,0.5,0c0.2,0,0.5,0,0.9,0c0.4,0,0.9,0,1.5,0.1v25.1
		c-0.7,0-1.3,0.1-1.8,0.1c-0.5,0-0.8,0-1,0c-0.2,0-0.3,0-0.4,0c-0.8,0-1.2,0.4-1.2,1.1v1.2h4.3h2.9h4.3v-1.2
		C214,137.8,213.6,137.4,212.8,137.4z M206.4,101.3c0.2,0.2,0.5,0.4,0.8,0.6c0.3,0.1,0.7,0.2,1,0.2c0.4,0,0.7-0.1,1-0.2
		c0.3-0.1,0.6-0.3,0.8-0.6c0.2-0.2,0.4-0.5,0.6-0.8c0.2-0.3,0.2-0.6,0.2-1s-0.1-0.7-0.2-1c-0.1-0.3-0.3-0.6-0.6-0.9
		c-0.2-0.2-0.5-0.4-0.8-0.6c-0.3-0.1-0.7-0.2-1-0.2c-0.4,0-0.7,0.1-1,0.2c-0.3,0.1-0.6,0.3-0.8,0.6c-0.2,0.2-0.4,0.5-0.6,0.9
		c-0.1,0.3-0.2,0.7-0.2,1c0,0.4,0.1,0.7,0.2,1C206,100.8,206.2,101.1,206.4,101.3z"/>
	<path fill="#918F90" d="M238.6,134.9c-0.1-0.2-0.3-0.3-0.6-0.3c-0.2,0-0.5,0.2-0.9,0.5c-0.4,0.3-0.9,0.7-1.5,1.1
		c-0.6,0.4-1.4,0.8-2.4,1.1c-1,0.3-2.2,0.5-3.6,0.5c-1.6,0-3-0.3-4.3-0.9c-1.3-0.6-2.4-1.4-3.3-2.5c-0.9-1.1-1.6-2.5-2.1-4.1
		c-0.5-1.6-0.7-3.5-0.7-5.6c0-2,0.2-3.8,0.7-5.5c0.5-1.6,1.2-3,2.1-4.1c0.9-1.1,2-2,3.4-2.6c1.3-0.6,2.9-0.9,4.6-0.9
		c1.5,0,3.2,0.3,5.1,1c0,0.8,0.1,1.6,0.2,2.3c0.1,0.7,0.1,1.3,0.2,1.7c0,0.4,0.1,0.7,0.1,0.7c0,1,0.5,1.5,1.3,1.5h1.5v-7.5l-1.6-0.5
		c-1-0.3-2.3-0.6-3.7-0.9c-1.4-0.3-2.4-0.5-3.1-0.5c-2.2,0-4.1,0.4-5.8,1.1c-1.7,0.7-3.1,1.8-4.2,3.2c-1.1,1.4-2,3-2.6,4.9
		c-0.6,1.9-0.9,4-0.9,6.2c0,2.4,0.3,4.6,0.9,6.5c0.6,1.9,1.5,3.5,2.6,4.8c1.1,1.3,2.5,2.3,4.1,3c1.6,0.7,3.3,1,5.2,1
		c1.1,0,2.2-0.1,3.2-0.3c1-0.2,2-0.5,2.9-0.9c0.9-0.4,1.7-0.8,2.4-1.3c0.7-0.5,1.3-1.1,1.7-1.7L238.6,134.9z"/>
	<path fill="#918F90" d="M252.6,137.4c-0.1,0-0.2,0-0.3,0c-0.1,0-0.3,0-0.5,0c-0.2,0-0.5,0-0.9,0c-0.4,0-0.9,0-1.5-0.1v-27.5h-2.9
		h-4.3v1.2c0,0.7,0.4,1,1.2,1.1c0.1,0,0.2,0,0.3,0c0.1,0,0.3,0,0.5,0c0.2,0,0.5,0,0.9,0c0.4,0,0.9,0,1.5,0.1v25.1
		c-0.7,0-1.3,0.1-1.8,0.1c-0.5,0-0.8,0-1,0c-0.2,0-0.3,0-0.4,0c-0.8,0-1.2,0.4-1.2,1.1v1.2h4.3h2.9h4.3v-1.2
		C253.8,137.8,253.4,137.4,252.6,137.4z M246.1,101.3c0.2,0.2,0.5,0.4,0.8,0.6c0.3,0.1,0.7,0.2,1,0.2c0.4,0,0.7-0.1,1-0.2
		c0.3-0.1,0.6-0.3,0.8-0.6c0.2-0.2,0.4-0.5,0.6-0.8c0.1-0.3,0.2-0.6,0.2-1s-0.1-0.7-0.2-1c-0.1-0.3-0.3-0.6-0.6-0.9
		c-0.2-0.2-0.5-0.4-0.8-0.6c-0.3-0.1-0.7-0.2-1-0.2c-0.4,0-0.7,0.1-1,0.2c-0.3,0.1-0.6,0.3-0.8,0.6c-0.2,0.2-0.4,0.5-0.6,0.9
		c-0.1,0.3-0.2,0.7-0.2,1c0,0.4,0.1,0.7,0.2,1C245.7,100.8,245.9,101.1,246.1,101.3z"/>
	<path fill="#918F90" d="M266.3,140.1c1.3,0,2.5-0.3,3.7-0.8c1.2-0.5,2.1-1.2,2.9-2l-0.8-1.3c-0.2-0.2-0.3-0.3-0.5-0.3
		c-0.1,0-0.3,0.1-0.6,0.3c-0.2,0.2-0.5,0.4-0.9,0.7c-0.4,0.2-0.8,0.5-1.3,0.7c-0.5,0.2-1.1,0.3-1.9,0.3c-0.6,0-1.1-0.1-1.6-0.3
		c-0.5-0.2-0.9-0.5-1.3-0.8c-0.4-0.4-0.7-0.9-0.9-1.5c-0.2-0.6-0.3-1.3-0.3-2.1v-20.3h9.4v-2.1h-9.4V99.3h-1.4
		c-0.2,0-0.4,0.1-0.5,0.2c-0.1,0.1-0.2,0.3-0.2,0.5l-0.7,10.7l-5.1,0.4v1.1c0,0.2,0.1,0.4,0.2,0.5c0.1,0.1,0.3,0.2,0.5,0.2h4.3v20.4
		c0,2.3,0.6,4.1,1.7,5.2C262.7,139.6,264.3,140.1,266.3,140.1z"/>
	<path fill="#918F90" d="M287.5,137.8c-1.8,0-3.3-0.3-4.7-0.9c-1.3-0.6-2.4-1.5-3.3-2.6c-0.9-1.1-1.6-2.5-2-4.1
		c-0.5-1.6-0.7-3.4-0.7-5.4c0-2,0.2-3.8,0.7-5.4c0.4-1.6,1.1-3,2-4.2c0.9-1.1,2-2,3.3-2.7c1.3-0.6,2.9-0.9,4.7-0.9
		c1.8,0,3.3,0.3,4.7,0.9c1.3,0.6,2.4,1.5,3.3,2.7c0.9,1.1,1.6,2.5,2,4.2c0.4,1.6,0.7,3.4,0.7,5.4c0,2-0.2,3.8-0.7,5.4
		c-0.4,1.6-1.1,3-2,4.1c-0.9,1.1-2,2-3.3,2.6C290.8,137.5,289.3,137.8,287.5,137.8z M287.5,109.3c-2.1,0-4.1,0.4-5.7,1.1
		c-1.7,0.7-3.1,1.8-4.3,3.1c-1.2,1.3-2.1,3-2.7,4.8c-0.6,1.9-0.9,4-0.9,6.4c0,2.3,0.3,4.5,0.9,6.3c0.6,1.9,1.5,3.5,2.7,4.8
		c1.2,1.3,2.6,2.4,4.3,3.1c1.7,0.7,3.6,1.1,5.7,1.1c2.2,0,4.1-0.4,5.8-1.1c1.7-0.7,3.1-1.8,4.3-3.1c1.2-1.3,2-3,2.7-4.8
		c0.6-1.9,0.9-4,0.9-6.3c0-2.3-0.3-4.5-0.9-6.4c-0.6-1.9-1.5-3.5-2.7-4.8c-1.2-1.3-2.6-2.4-4.3-3.1
		C291.5,109.7,289.6,109.3,287.5,109.3z"/>
	<path fill="#918F90" d="M322.2,109.5c-0.8-0.2-1.6-0.3-2.5-0.3c-2.3,0-4.3,0.7-5.9,2.1c-1.6,1.4-2.9,3.3-3.8,5.7l-0.2-6.3
		c0-0.3-0.1-0.6-0.3-0.7c-0.2-0.1-0.4-0.2-0.7-0.2h-1.5l0,0h-4.3v1.2c0,0.8,0.4,1,1.2,1.1c0.4,0,0.7,0,3.1,0.1v25.1
		c-2.5,0.1-2.8,0.1-3.1,0.1c-0.8,0-1.2,0.3-1.2,1.1v1.2h4.3h2.9v0h4.3v-1.2c0-0.8-0.4-1-1.2-1.1c-0.4,0-0.7,0-3.1-0.1v-17.1
		c0.9-2.6,2.1-4.7,3.5-6.1c1.4-1.4,3.3-2.1,5.6-2.1c0.6,0,1.2,0,1.6,0.1c0.5,0.1,0.9,0.2,1.2,0.3c0.3,0.1,0.6,0.2,0.8,0.3
		c0.2,0.1,0.4,0.1,0.5,0.1c0.3,0,0.5-0.2,0.6-0.5l0.4-2C323.7,110,323,109.7,322.2,109.5z"/>
	<path fill="#918F90" d="M346.2,127.9c-0.5-0.8-1.1-1.6-1.9-2.1c-0.8-0.6-1.7-1.1-2.7-1.5c-1-0.4-2-0.7-3-1.1c-1-0.3-2-0.6-3.1-1
		c-1-0.3-1.9-0.7-2.7-1.1c-0.8-0.4-1.4-1-1.9-1.6c-0.5-0.6-0.7-1.4-0.7-2.3c0-0.8,0.2-1.5,0.5-2.2c0.4-0.7,0.8-1.3,1.5-1.8
		c0.6-0.5,1.4-0.9,2.3-1.2c0.9-0.3,1.9-0.5,3-0.5c1.6,0,3.2,0.3,4.8,0.8c0,0.7,0.1,1.4,0.2,2.1c0,0.7,0.1,1.2,0.1,1.5
		c0,0.4,0.1,0.6,0.1,0.7c0.1,1,0.5,1.5,1.3,1.5h1.5v-7.1c-3.1-1.1-5.8-1.6-7.9-1.6c-1.5,0-2.9,0.2-4.1,0.7c-1.2,0.4-2.3,1-3.1,1.8
		c-0.9,0.7-1.5,1.6-2,2.6c-0.5,1-0.7,2-0.7,3.1c0,1.2,0.2,2.3,0.7,3.1c0.5,0.8,1.1,1.5,1.9,2.1c0.8,0.6,1.7,1.1,2.7,1.4
		c1,0.4,2,0.7,3.1,1.1c1,0.3,2.1,0.6,3.1,1c1,0.3,1.9,0.7,2.7,1.2c0.8,0.5,1.4,1,1.9,1.7c0.5,0.7,0.7,1.5,0.7,2.5
		c0,0.9-0.2,1.8-0.5,2.6c-0.3,0.8-0.8,1.5-1.5,2.1c-0.6,0.6-1.4,1.1-2.4,1.4c-1,0.3-2.1,0.5-3.3,0.5c-2.3,0-4.2-0.3-5.8-1
		c0-0.8-0.1-1.5-0.1-2.1c-0.1-0.7-0.1-1.2-0.1-1.6c0-0.4-0.1-0.6-0.1-0.7c0-1-0.5-1.5-1.3-1.5h-1.5v7.3c2.9,1.1,5.8,1.7,8.8,1.7
		c1.7,0,3.1-0.2,4.4-0.7c1.3-0.5,2.4-1.1,3.3-2c0.9-0.8,1.6-1.8,2-2.9c0.5-1.1,0.7-2.3,0.7-3.6C346.9,129.7,346.6,128.7,346.2,127.9
		z"/>
	<path fill="#393636" d="M201.6,24.9c0.7,0,1.1,0.1,1.3,0.3c0.1,0.2,0.2,0.5,0.2,0.8c0,0.3-0.1,0.6-0.4,0.8
		c-0.2,0.2-0.8,0.3-1.8,0.3c-1.6,0-2.9,0.1-4,0.4c-1.1,0.2-1.9,0.7-2.5,1.3c-0.6,0.6-1,1.4-1.3,2.3c-0.2,0.9-0.4,2.1-0.4,3.4V78
		c0,2.5,0.4,4.3,1.3,5.4c0.8,1.1,2.4,1.6,4.7,1.6h7.8c1.8,0,3.5-0.1,5.3-0.4c1.7-0.3,3.5-0.9,5.2-1.8c1.5-0.8,3-2,4.3-3.5
		c1.3-1.5,2.5-3,3.5-4.6c1-1.5,1.8-2.8,2.4-4c0.6-1.1,0.9-1.8,1-1.9c0.3-0.6,0.6-1,0.9-1.2c0.3-0.2,0.5-0.3,0.8-0.3
		c0.7,0,1,0.3,1,0.9c0,0.2,0,0.5-0.1,0.7c-0.1,0.2-0.2,0.6-0.4,1.2l-3,10.3c-0.3,1.1-0.6,2.2-0.8,3.1c-0.2,0.9-0.4,1.7-0.5,2.4
		c-0.1,0.7-0.3,1-0.5,1.2c-0.2,0.1-0.8,0.2-1.6,0.2h-35.7c-3.3,0-5.8,0-7.5,0.1c-1.6,0.1-2.8,0.1-3.6,0.1c-0.8,0-1.3-0.1-1.4-0.4
		c-0.2-0.2-0.3-0.5-0.3-0.7c0-0.3,0.1-0.6,0.4-0.8s0.9-0.3,1.7-0.3c1.9,0,3.4-0.4,4.5-1.2c1.1-0.8,1.6-2.3,1.6-4.5V32.6
		c0-2.3-0.5-3.8-1.6-4.5c-0.5-0.3-1.1-0.8-2.4-0.8c-10,0-31.6,0-31.6,0v52c0,2.3,0.6,3.9,1.9,4.6c1.3,0.7,3.2,1.1,5.8,1.1
		c0.8,0,1.4,0.1,1.7,0.4c0.3,0.3,0.4,0.5,0.4,0.8c0,0.2-0.1,0.5-0.2,0.7c-0.1,0.2-0.6,0.4-1.4,0.4c-0.8,0-2.3,0-4.4-0.1
		c-2.2-0.1-5-0.1-8.4-0.1c-3.3,0-6.1,0-8.3,0.1c-2.2,0.1-3.7,0.1-4.5,0.1c-0.7,0-1.2-0.1-1.3-0.4c-0.2-0.2-0.3-0.5-0.3-0.7
		c0-0.3,0.1-0.6,0.4-0.8c0.3-0.3,0.9-0.4,1.7-0.4c0.9,0,1.8,0,2.7-0.1c0.9-0.1,1.7-0.3,2.5-0.7c0.7-0.4,1.3-0.9,1.8-1.6
		c0.5-0.7,0.7-1.6,0.7-2.8V27.4h-7.7c-3,0-5.6,0.5-7.7,1.4c-2.1,0.9-3.8,2.1-5.2,3.4c-1.4,1.3-2.5,2.7-3.4,4.2
		c-0.9,1.5-1.6,2.7-2.2,3.8c-0.2,0.4-0.4,0.6-0.6,0.8c-0.1,0.2-0.4,0.3-0.7,0.3c-0.6,0-0.9-0.3-0.9-0.9c0-0.2,0.1-0.6,0.2-1.1
		c0.1-0.6,0.3-1.2,0.5-2c0.2-0.8,0.4-1.6,0.6-2.5c0.2-0.9,0.4-1.8,0.6-2.6c0.1-0.6,0.3-1.3,0.4-2.1c0.2-0.8,0.4-1.5,0.5-2.3
		c0.2-0.7,0.3-1.4,0.4-2c0.1-0.6,0.2-0.9,0.2-1.1c0.1-0.4,0.2-0.7,0.4-1c0.1-0.2,0.4-0.4,0.8-0.4c0.5,0,0.9,0.1,1.2,0.3
		c0.3,0.2,0.9,0.4,1.7,0.6c0.8,0.2,2,0.4,3.7,0.6c1.6,0.2,4.1,0.3,7.3,0.3 M312.1,25.2c-0.2-0.2-0.6-0.4-1.3-0.4c-0.3,0-0.8,0-1.4,0
		c-0.6,0-1.3,0-2.1,0c-0.7,0-1.5,0-2.3,0c-0.8,0-1.5,0-2.2,0c-3.2,0-5.4,0-6.6,0c-1.3,0-2.1,0-2.5,0c-0.7,0-1.1,0.1-1.2,0.3
		c-0.1,0.2-0.2,0.4-0.2,0.7c0,0.3,0.1,0.6,0.4,0.8c0.3,0.2,0.8,0.4,1.6,0.4c1.4,0,2.6,0.4,3.6,1.3c1,0.8,1.5,2.1,1.5,3.9
		c0,1.2-0.2,2.4-0.5,3.6c-0.3,1.2-0.7,2.5-1.2,3.9L286,74.5l-14.6-37.7c-0.5-1.2-0.9-2.3-1.2-3.3c-0.3-1-0.4-1.9-0.4-2.8
		c0-1.5,0.6-2.6,1.8-3c1.2-0.5,2.8-0.7,4.7-0.7c0.6,0,1-0.1,1.3-0.4c0.3-0.2,0.4-0.5,0.4-0.7c0-0.7-0.4-1.1-1.3-1.1
		c-0.4,0-0.8,0-1.4,0c-0.6,0-1.3,0-2.3,0c-1,0-2.2,0-3.6,0c-1.5,0-3.3,0-5.4,0c-2.1,0-3.9,0-5.2,0c-1.3,0-2.4,0-3.2,0
		c-0.8,0-1.5,0-2,0c-0.5,0-1,0-1.4,0c-0.5,0-0.9,0.1-1,0.4c-0.1,0.2-0.2,0.5-0.2,0.8c0,0.2,0.1,0.4,0.4,0.6c0.2,0.2,0.7,0.4,1.3,0.4
		c2.3,0,3.9,0.5,5,1.5c1.1,1,2,2.5,2.7,4.4l3.2,8.5l-13.5,33.2l-14.6-37.8c-0.3-0.8-0.6-1.7-1-2.9c-0.4-1.2-0.6-2.2-0.6-3.3
		c0-2.4,1.7-3.7,5.2-3.7c0.5,0,0.9-0.1,1.2-0.4c0.3-0.2,0.4-0.5,0.4-0.7c0-0.7-0.4-1.1-1.3-1.1c-0.4,0-0.8,0-1.2,0
		c-0.4,0-1.1,0-1.9,0c-0.8,0-1.9,0-3.2,0c-1.3,0-3,0-5.2,0c-2,0-3.7,0-5,0c-1.3,0-2.4,0-3.3,0c-0.8,0-1.5,0-2,0c-0.5,0-0.9,0-1.2,0
		c-0.5,0-0.9,0.1-1,0.3c-0.1,0.2-0.2,0.5-0.2,0.8c0,0.2,0.1,0.4,0.3,0.6c0.2,0.2,0.6,0.4,1.2,0.4c1.9,0.1,3.5,0.7,4.9,1.7
		c1.4,1,2.4,2.4,3.1,4.2l20.9,54.2c0.3,0.8,0.5,1.3,0.7,1.5c0.2,0.2,0.4,0.4,0.7,0.4c0.3,0,0.5-0.1,0.7-0.4c0.2-0.2,0.4-0.8,0.8-1.8
		l16.4-41.4l16.8,41.7c0.3,0.8,0.5,1.3,0.7,1.5c0.1,0.2,0.4,0.4,0.7,0.4c0.3,0,0.6-0.1,0.8-0.3c0.2-0.2,0.5-0.8,0.8-1.8L301.6,37
		c0.6-1.8,1.3-3.3,2-4.6c0.7-1.3,1.5-2.2,2.3-3c0.8-0.7,1.6-1.3,2.4-1.7c0.8-0.4,1.6-0.6,2.3-0.8c1.1-0.2,1.7-0.5,1.7-1.1
		C312.3,25.7,312.3,25.5,312.1,25.2z"/>
</g>
<path fill="#C20D4D" d="M41.2,20.4"/>
<g>
	<path fill="#C60651" d="M98.4,45.3L56.6,21.2c-2.7-1.6-7.1-1.6-9.8,0L29.2,31.4c-5.4,8.5-8.5,18.3-9,28.4
		c9.1-5.9,19.9-9.3,31.5-9.3c11.6,0,22.5,3.4,31.5,9.3c8.5,5.5,15.4,13.1,20.1,22.1V53.8C103.3,50.7,101.1,46.9,98.4,45.3z"/>
	<path fill="#7A003C" d="M56.6,134.7l41.9-24.2c2.7-1.6,4.9-5.4,4.9-8.5l0-20.4c-4.7-9-11.6-16.5-20.1-22c0.6,10.8-1.9,21.9-7.7,32
		c-5.8,10.1-14.2,17.8-23.8,22.7c-9,4.6-19.1,6.8-29.2,6.4l24.3,14C49.5,136.3,53.9,136.3,56.6,134.7z"/>
	<path fill="#49182D" d="M0,53.8l0.1,48.3c0,3.1,2.2,6.9,4.9,8.4l17.7,10.2c10.1,0.4,20.1-1.8,29.1-6.4c-9.6-4.9-18-12.6-23.9-22.6
		c-5.8-10.1-8.3-21.2-7.8-32c0.5-10.1,3.6-19.9,9.1-28.5L4.9,45.3C2.2,46.9,0,50.7,0,53.8z"/>
</g>
<g>
</g>
<g>
</g>
<g>
</g>
<g>
</g>
<g>
</g>
<g>
</g>
<g>
</g>
<g>
</g>
<g>
</g>
<g>
</g>
<g>
</g>
<g>
</g>
<g>
</g>
<g>
</g>
<g>
</g>
</svg>
