<?xml version="1.0" encoding="utf-8"?>
<!-- Generator: Adobe Illustrator 18.1.1, SVG Export Plug-In . SVG Version: 6.00 Build 0)  -->
<svg version="1.1" id="Layer_1" xmlns="http://www.w3.org/2000/svg" xmlns:xlink="http://www.w3.org/1999/xlink" x="0px" y="0px"
	 viewBox="0 0 650 160" enable-background="new 0 0 650 160" xml:space="preserve">
<path fill="#393536" d="M204,50.1c0.7,0,1.1,0.1,1.3,0.3c0.1,0.2,0.2,0.5,0.2,0.7c0,0.3-0.1,0.5-0.4,0.7c-0.2,0.2-0.8,0.3-1.8,0.3
	c-1.6,0-2.9,0.1-4,0.4c-1.1,0.2-1.9,0.6-2.5,1.2c-0.6,0.6-1,1.3-1.2,2.2c-0.2,0.9-0.4,2-0.4,3.4v43.1c0,2.5,0.4,4.2,1.2,5.3
	c0.8,1.1,2.4,1.6,4.7,1.6h7.7c1.8,0,3.5-0.1,5.2-0.4c1.7-0.3,3.4-0.9,5.1-1.8c1.5-0.8,3-2,4.3-3.5c1.3-1.5,2.5-3,3.5-4.5
	c1-1.5,1.8-2.8,2.4-3.9c0.6-1.1,0.9-1.7,1-1.9c0.3-0.6,0.6-1,0.8-1.2c0.3-0.2,0.5-0.3,0.8-0.3c0.6,0,1,0.3,1,0.9
	c0,0.2,0,0.5-0.1,0.7c-0.1,0.2-0.2,0.6-0.4,1.1l-3,10.1c-0.3,1.1-0.5,2.1-0.8,3c-0.2,0.9-0.4,1.7-0.5,2.3c-0.1,0.6-0.3,1-0.5,1.1
	c-0.2,0.1-0.8,0.2-1.6,0.2h-35.3c-3.3,0-5.8,0-7.4,0.1c-1.6,0.1-2.8,0.1-3.6,0.1c-0.8,0-1.2-0.1-1.4-0.3c-0.2-0.2-0.3-0.5-0.3-0.7
	c0-0.3,0.1-0.5,0.4-0.8c0.3-0.2,0.9-0.3,1.7-0.3c1.9,0,3.3-0.4,4.4-1.1c1.1-0.8,1.6-2.2,1.6-4.4V57.8c0-2.2-0.5-3.7-1.6-4.5
	c-0.5-0.3-1.1-0.7-2.4-0.7c-9.9,0-31.2,0-31.2,0v51.3c0,2.3,0.6,3.8,1.9,4.5c1.2,0.7,3.1,1.1,5.7,1.1c0.8,0,1.4,0.1,1.7,0.4
	c0.3,0.3,0.4,0.5,0.4,0.8c0,0.2-0.1,0.5-0.2,0.7c-0.1,0.2-0.6,0.4-1.4,0.4c-0.8,0-2.2,0-4.4-0.1c-2.2-0.1-4.9-0.1-8.2-0.1
	c-3.3,0-6,0-8.2,0.1c-2.1,0.1-3.6,0.1-4.4,0.1c-0.7,0-1.1-0.1-1.3-0.4c-0.2-0.2-0.3-0.5-0.3-0.7c0-0.3,0.1-0.6,0.4-0.8
	c0.3-0.3,0.9-0.4,1.7-0.4c0.9,0,1.8,0,2.7-0.1c0.9-0.1,1.7-0.3,2.4-0.7c0.7-0.4,1.3-0.9,1.8-1.5c0.5-0.7,0.7-1.6,0.7-2.8V52.6h-7.6
	c-3,0-5.5,0.5-7.6,1.4c-2.1,0.9-3.8,2-5.1,3.4c-1.4,1.3-2.5,2.7-3.3,4.1c-0.9,1.4-1.6,2.7-2.2,3.7c-0.2,0.4-0.4,0.6-0.6,0.8
	c-0.1,0.2-0.4,0.3-0.7,0.3c-0.6,0-0.9-0.3-0.9-0.9c0-0.2,0.1-0.5,0.2-1.1c0.1-0.6,0.3-1.2,0.5-2c0.2-0.8,0.4-1.6,0.6-2.5
	c0.2-0.9,0.4-1.8,0.6-2.6c0.1-0.6,0.3-1.3,0.4-2c0.2-0.8,0.3-1.5,0.5-2.2c0.2-0.7,0.3-1.4,0.4-1.9c0.1-0.6,0.2-0.9,0.2-1.1
	c0.1-0.4,0.2-0.7,0.4-1c0.1-0.2,0.4-0.4,0.8-0.4c0.5,0,0.9,0.1,1.1,0.3c0.3,0.2,0.8,0.4,1.6,0.6c0.8,0.2,2,0.4,3.6,0.6
	c1.6,0.2,4,0.3,7.2,0.3 M313.1,50.4c-0.2-0.2-0.6-0.4-1.2-0.4c-0.3,0-0.8,0-1.4,0c-0.6,0-1.3,0-2,0c-0.7,0-1.5,0-2.2,0
	c-0.8,0-1.5,0-2.2,0c-3.1,0-5.3,0-6.5,0c-1.2,0-2.1,0-2.5,0c-0.7,0-1.1,0.1-1.2,0.3c-0.1,0.2-0.2,0.4-0.2,0.7c0,0.3,0.1,0.6,0.4,0.8
	c0.3,0.2,0.8,0.3,1.5,0.3c1.4,0,2.6,0.4,3.6,1.2c1,0.8,1.5,2.1,1.5,3.9c0,1.2-0.2,2.4-0.5,3.6c-0.3,1.2-0.7,2.5-1.2,3.8l-11.6,34.4
	L273,61.9c-0.5-1.2-0.9-2.2-1.1-3.2c-0.3-1-0.4-1.9-0.4-2.8c0-1.5,0.6-2.5,1.8-3c1.2-0.5,2.8-0.7,4.6-0.7c0.6,0,1-0.1,1.3-0.3
	c0.3-0.2,0.4-0.5,0.4-0.7c0-0.7-0.4-1.1-1.3-1.1c-0.4,0-0.8,0-1.4,0c-0.6,0-1.3,0-2.3,0c-0.9,0-2.1,0-3.6,0c-1.4,0-3.2,0-5.3,0
	c-2.1,0-3.8,0-5.1,0c-1.3,0-2.3,0-3.1,0c-0.8,0-1.4,0-1.9,0c-0.5,0-1,0-1.4,0c-0.5,0-0.9,0.1-1,0.4c-0.1,0.2-0.2,0.5-0.2,0.8
	c0,0.2,0.1,0.4,0.4,0.6c0.2,0.2,0.7,0.3,1.3,0.3c2.2,0,3.9,0.5,5,1.5c1.1,1,2,2.4,2.7,4.3l3.2,8.4l-13.3,32.8l-14.5-37.3
	c-0.3-0.8-0.6-1.7-1-2.9c-0.4-1.1-0.6-2.2-0.6-3.2c0-2.4,1.7-3.6,5.1-3.6c0.5,0,0.9-0.1,1.2-0.3c0.3-0.2,0.4-0.5,0.4-0.7
	c0-0.7-0.4-1.1-1.3-1.1c-0.4,0-0.8,0-1.2,0c-0.4,0-1.1,0-1.9,0c-0.8,0-1.8,0-3.1,0c-1.3,0-3,0-5.1,0c-2,0-3.7,0-5,0
	c-1.3,0-2.4,0-3.2,0c-0.8,0-1.5,0-2,0c-0.5,0-0.9,0-1.2,0c-0.5,0-0.9,0.1-1,0.3c-0.1,0.2-0.2,0.5-0.2,0.7c0,0.2,0.1,0.4,0.3,0.6
	c0.2,0.2,0.6,0.4,1.2,0.4c1.9,0.1,3.5,0.7,4.9,1.6c1.3,1,2.4,2.4,3.1,4.2l20.6,53.5c0.3,0.8,0.5,1.3,0.7,1.5
	c0.2,0.2,0.4,0.4,0.7,0.4c0.3,0,0.5-0.1,0.7-0.4c0.2-0.2,0.4-0.8,0.8-1.8l16.2-40.9l16.6,41.2c0.3,0.8,0.5,1.3,0.7,1.5
	c0.1,0.2,0.4,0.4,0.7,0.4c0.3,0,0.6-0.1,0.8-0.3c0.2-0.2,0.5-0.8,0.8-1.8l16.6-49.2c0.6-1.8,1.2-3.3,2-4.5c0.7-1.2,1.5-2.2,2.3-3
	c0.8-0.7,1.6-1.3,2.4-1.7c0.8-0.4,1.5-0.6,2.2-0.8c1.1-0.2,1.7-0.5,1.7-1.1C313.4,50.9,313.3,50.7,313.1,50.4z"/>
<path fill="#918F8F" d="M363.7,88.4c-0.9-1.7-2.1-3.2-3.5-4.3c-1.5-1.2-3.1-2.2-5-2.9c-1.9-0.8-3.8-1.5-5.8-2.1
	c-2-0.6-3.9-1.3-5.8-2c-1.9-0.7-3.5-1.5-5-2.4c-1.5-1-2.7-2.2-3.5-3.5c-0.9-1.4-1.3-3.1-1.3-5.2c0-1.6,0.3-3.2,0.9-4.6
	c0.6-1.5,1.5-2.8,2.7-3.9c1.2-1.1,2.6-2,4.3-2.6s3.7-1,6-1c4.2,0,8.1,0.8,11.6,2.2c0.2,5,0.4,7.8,0.4,8.3c0.1,1.4,0.7,2.1,1.9,2.1
	h2.1V53.6c-5.6-2.4-10.9-3.6-16.1-3.6c-2.9,0-5.4,0.4-7.7,1.4c-2.3,0.9-4.1,2.1-5.7,3.6c-1.5,1.5-2.7,3.2-3.5,5.1
	c-0.8,1.9-1.2,3.9-1.2,6c0,2.7,0.4,4.9,1.3,6.7c0.9,1.8,2.1,3.3,3.5,4.4c1.5,1.2,3.1,2.2,5,2.9c1.9,0.8,3.8,1.4,5.8,2.1
	c1.9,0.6,3.9,1.2,5.8,1.9c1.9,0.6,3.5,1.4,5,2.4c1.5,1,2.6,2.1,3.5,3.6c0.9,1.4,1.3,3.2,1.3,5.4c0,2-0.4,3.9-1.1,5.7
	c-0.7,1.8-1.7,3.3-3.1,4.6c-1.3,1.3-3,2.3-4.9,3.1c-1.9,0.8-4.1,1.1-6.6,1.1c-4.9,0-9-0.8-12.4-2.4c-0.1-1.2-0.1-2.5-0.2-3.9
	c-0.1-1.4-0.1-2.6-0.2-3.6c0-0.9-0.1-1.5-0.1-1.6c-0.1-1.4-0.7-2.1-1.9-2.1h-2.1v11.7v1.1v1.2c5.4,2.3,11,3.4,16.8,3.4
	c3.2,0,6-0.5,8.5-1.5c2.5-1,4.5-2.3,6.2-4c1.7-1.7,3-3.7,3.9-6c0.9-2.3,1.3-4.8,1.3-7.4C365.1,92.3,364.6,90.2,363.7,88.4z"/>
<path fill="#918F8F" d="M390.2,110.3c-2.6,0-4.9-0.4-6.8-1.3c-1.9-0.9-3.6-2.2-4.9-3.9c-1.3-1.7-2.3-3.7-3-6.1c-0.7-2.4-1-5-1-7.9
	c0-2.9,0.3-5.6,1-7.9c0.7-2.4,1.6-4.4,3-6.1c1.3-1.7,2.9-3,4.9-3.9c2-0.9,4.2-1.4,6.8-1.4c2.6,0,4.9,0.5,6.8,1.4
	c2,0.9,3.6,2.2,4.9,3.9c1.3,1.7,2.3,3.7,2.9,6.1c0.6,2.4,1,5,1,7.9c0,2.9-0.3,5.6-1,7.9c-0.7,2.4-1.6,4.4-2.9,6.1
	c-1.3,1.7-2.9,3-4.9,3.9C395.1,109.9,392.8,110.3,390.2,110.3z M390.2,68.5c-3.1,0-6,0.5-8.4,1.6c-2.5,1.1-4.6,2.6-6.3,4.6
	c-1.7,2-3,4.3-3.9,7.1c-0.9,2.8-1.3,5.9-1.3,9.3c0,3.4,0.5,6.5,1.3,9.3c0.9,2.8,2.2,5.1,3.9,7.1c1.7,2,3.8,3.5,6.3,4.5
	c2.5,1,5.3,1.6,8.4,1.6c3.1,0,6-0.5,8.4-1.6c2.5-1.1,4.6-2.6,6.3-4.5c1.7-2,3-4.3,3.9-7.1c0.9-2.8,1.3-5.9,1.3-9.3
	c0-3.4-0.4-6.5-1.3-9.3c-0.9-2.8-2.2-5.1-3.9-7.1c-1.7-2-3.8-3.5-6.3-4.6C396.2,69.1,393.4,68.5,390.2,68.5z"/>
<path fill="#918F8F" d="M427.8,109.7c-0.1,0-0.3,0-0.5,0c-0.2,0-0.4,0-0.7,0c-0.3,0-0.7,0-1.3,0c-0.6,0-1.3-0.1-2.1-0.1V49H419h-6.4
	v1.8c0,1,0.6,1.5,1.7,1.6c0.1,0,0.3,0,0.5,0c0.2,0,0.4,0,0.7,0c0.3,0,0.7,0,1.3,0.1c0.6,0,1.3,0.1,2.1,0.1v57.1
	c-1,0-1.9,0.1-2.6,0.1c-0.7,0-1.2,0-1.4,0.1c-0.2,0-0.4,0-0.6,0c-1.2,0.1-1.7,0.6-1.7,1.5v1.8h6.4h4.2h6.4v-1.8
	C429.5,110.3,428.9,109.8,427.8,109.7z"/>
<path fill="#918F8F" d="M448.9,109.7c-0.1,0-0.3,0-0.5,0c-0.2,0-0.4,0-0.7,0c-0.3,0-0.7,0-1.3,0c-0.6,0-1.3-0.1-2.1-0.1V69.2h-4.2
	h-6.4V71c0,1,0.6,1.5,1.7,1.6c0.1,0,0.3,0,0.5,0c0.2,0,0.4,0,0.7,0c0.3,0,0.7,0,1.3,0c0.6,0,1.3,0.1,2.1,0.1v36.8
	c-1,0-1.9,0.1-2.6,0.1c-0.7,0-1.2,0-1.4,0.1c-0.2,0-0.4,0-0.6,0c-1.2,0.1-1.7,0.6-1.7,1.6v1.8h6.4h4.2h6.4v-1.8
	C450.7,110.3,450.1,109.8,448.9,109.7z M439.5,56.8c0.4,0.4,0.8,0.6,1.2,0.8c0.5,0.2,1,0.3,1.5,0.3c0.5,0,1-0.1,1.5-0.3
	c0.5-0.2,0.9-0.5,1.2-0.8c0.4-0.4,0.6-0.8,0.9-1.2c0.2-0.5,0.3-1,0.3-1.5s-0.1-1-0.3-1.5c-0.2-0.5-0.5-0.9-0.9-1.3
	c-0.3-0.3-0.8-0.6-1.2-0.8c-0.5-0.2-1-0.3-1.5-0.3c-0.5,0-1,0.1-1.5,0.3c-0.5,0.2-0.9,0.5-1.2,0.8c-0.3,0.4-0.6,0.8-0.8,1.3
	c-0.2,0.5-0.3,1-0.3,1.5c0,0.5,0.1,1,0.3,1.5C438.9,56,439.2,56.4,439.5,56.8z"/>
<path fill="#918F8F" d="M486.8,106c-0.2-0.3-0.5-0.4-0.9-0.4c-0.3,0-0.7,0.2-1.3,0.7c-0.5,0.5-1.3,1-2.2,1.6
	c-0.9,0.6-2.1,1.1-3.5,1.6c-1.4,0.5-3.2,0.7-5.3,0.7c-2.3,0-4.4-0.4-6.3-1.3c-1.9-0.9-3.5-2.1-4.8-3.7c-1.3-1.6-2.3-3.6-3.1-6
	c-0.7-2.4-1.1-5.1-1.1-8.2c0-3,0.4-5.6,1.1-8c0.7-2.4,1.7-4.4,3.1-6.1c1.3-1.7,3-2.9,4.9-3.8c2-0.9,4.2-1.4,6.7-1.4
	c2.2,0,4.7,0.5,7.5,1.5c0.1,1.2,0.1,2.3,0.2,3.3c0.1,1,0.2,1.9,0.2,2.5c0.1,0.6,0.1,1,0.1,1.1c0.1,1.4,0.7,2.1,1.9,2.1h2.1V71.3
	l-2.3-0.7c-1.5-0.5-3.3-0.9-5.4-1.4c-2.1-0.5-3.6-0.7-4.6-0.7c-3.2,0-6,0.5-8.4,1.7c-2.5,1.1-4.5,2.7-6.2,4.6c-1.7,2-3,4.4-3.9,7.1
	c-0.9,2.8-1.3,5.8-1.3,9.2c0,3.6,0.5,6.7,1.4,9.5c0.9,2.8,2.2,5.1,3.9,7.1c1.7,1.9,3.6,3.4,5.9,4.4c2.3,1,4.9,1.5,7.6,1.5
	c1.6,0,3.2-0.2,4.7-0.5c1.5-0.3,2.9-0.7,4.2-1.3c1.3-0.6,2.5-1.2,3.5-2c1-0.8,1.9-1.6,2.6-2.5L486.8,106z"/>
<path fill="#918F8F" d="M507.2,109.7c-0.1,0-0.3,0-0.5,0c-0.2,0-0.4,0-0.7,0c-0.3,0-0.7,0-1.3,0c-0.6,0-1.3-0.1-2.1-0.1V69.2h-4.2
	H492V71c0,1,0.6,1.5,1.7,1.6c0.1,0,0.3,0,0.5,0c0.2,0,0.4,0,0.7,0c0.3,0,0.7,0,1.3,0c0.6,0,1.4,0.1,2.1,0.1v36.8
	c-1,0-1.9,0.1-2.6,0.1c-0.7,0-1.2,0-1.4,0.1c-0.2,0-0.4,0-0.6,0c-1.2,0.1-1.7,0.6-1.7,1.6v1.8h6.4h4.2h6.4v-1.8
	C509,110.3,508.4,109.8,507.2,109.7z M497.8,56.8c0.4,0.4,0.8,0.6,1.2,0.8c0.5,0.2,1,0.3,1.5,0.3c0.5,0,1-0.1,1.5-0.3
	c0.5-0.2,0.9-0.5,1.2-0.8c0.4-0.4,0.6-0.8,0.9-1.2c0.2-0.5,0.3-1,0.3-1.5s-0.1-1-0.3-1.5c-0.2-0.5-0.5-0.9-0.9-1.3
	c-0.3-0.3-0.8-0.6-1.2-0.8c-0.5-0.2-1-0.3-1.5-0.3c-0.5,0-1,0.1-1.5,0.3c-0.5,0.2-0.9,0.5-1.2,0.8c-0.3,0.4-0.6,0.8-0.8,1.3
	c-0.2,0.5-0.3,1-0.3,1.5c0,0.5,0.1,1,0.3,1.5C497.2,56,497.4,56.4,497.8,56.8z"/>
<path fill="#918F8F" d="M527.3,113.7c1.9,0,3.6-0.4,5.4-1.1c1.7-0.8,3.1-1.7,4.2-3l-1.1-1.8c-0.2-0.3-0.5-0.4-0.7-0.4
	c-0.2,0-0.5,0.2-0.8,0.5c-0.3,0.3-0.8,0.6-1.4,1c-0.6,0.4-1.2,0.7-2,1c-0.8,0.3-1.7,0.5-2.7,0.5c-0.8,0-1.6-0.1-2.4-0.4
	c-0.7-0.3-1.4-0.7-1.9-1.2c-0.5-0.6-1-1.3-1.3-2.1c-0.3-0.9-0.5-1.9-0.5-3.1V73.7h13.8v-3.1h-13.8V53.8h-2c-0.3,0-0.6,0.1-0.8,0.3
	c-0.2,0.2-0.3,0.4-0.3,0.7L518,70.5l-7.5,0.5v1.6c0,0.3,0.1,0.6,0.3,0.8c0.2,0.2,0.5,0.3,0.8,0.3h6.3v29.9c0,3.4,0.8,6,2.5,7.6
	C522,112.9,524.4,113.7,527.3,113.7z"/>
<path fill="#918F8F" d="M558.4,110.3c-2.6,0-4.9-0.4-6.8-1.3c-2-0.9-3.6-2.2-4.9-3.9c-1.3-1.7-2.3-3.7-2.9-6.1c-0.7-2.4-1-5-1-7.9
	c0-2.9,0.3-5.6,1-7.9c0.7-2.4,1.6-4.4,2.9-6.1c1.3-1.7,2.9-3,4.9-3.9c2-0.9,4.2-1.4,6.8-1.4c2.6,0,4.9,0.5,6.8,1.4
	c1.9,0.9,3.6,2.2,4.9,3.9c1.3,1.7,2.3,3.7,2.9,6.1c0.7,2.4,1,5,1,7.9c0,2.9-0.3,5.6-1,7.9c-0.6,2.4-1.6,4.4-2.9,6.1
	c-1.3,1.7-2.9,3-4.9,3.9C563.3,109.9,561,110.3,558.4,110.3z M558.4,68.5c-3.1,0-6,0.5-8.4,1.6c-2.5,1.1-4.6,2.6-6.3,4.6
	c-1.7,2-3,4.3-3.9,7.1c-0.9,2.8-1.3,5.9-1.3,9.3c0,3.4,0.5,6.5,1.3,9.3c0.9,2.8,2.2,5.1,3.9,7.1c1.7,2,3.8,3.5,6.3,4.5
	c2.5,1,5.3,1.6,8.4,1.6c3.2,0,6-0.5,8.4-1.6c2.5-1.1,4.6-2.6,6.3-4.5c1.7-2,3-4.3,3.9-7.1c0.9-2.8,1.3-5.9,1.3-9.3
	c0-3.4-0.4-6.5-1.3-9.3c-0.9-2.8-2.2-5.1-3.9-7.1c-1.7-2-3.8-3.5-6.3-4.6C564.4,69.1,561.6,68.5,558.4,68.5z"/>
<path fill="#918F8F" d="M609.3,68.9c-1.1-0.3-2.3-0.4-3.7-0.4c-3.4,0-6.3,1-8.7,3c-2.4,2-4.2,4.8-5.6,8.3l-0.3-9.2
	c0-0.5-0.2-0.9-0.4-1.1c-0.2-0.2-0.6-0.3-1.1-0.3h-2.2l0,0H581V71c0,1.1,0.7,1.5,1.8,1.6c0.5,0,1,0,4.6,0.2v36.8
	c-3.6,0.1-4.1,0.2-4.6,0.2c-1.1,0.1-1.8,0.4-1.8,1.6v1.8h6.4h4.2v0h6.4v-1.8c0-1.1-0.7-1.5-1.7-1.6c-0.6,0-1,0-4.6-0.2v-25
	c1.3-3.9,3-6.8,5.2-8.9c2.1-2.1,4.9-3.1,8.2-3.1c0.9,0,1.7,0.1,2.4,0.2c0.7,0.1,1.3,0.2,1.8,0.4c0.5,0.1,0.9,0.3,1.2,0.4
	c0.3,0.1,0.6,0.2,0.7,0.2c0.5,0,0.8-0.2,0.9-0.7l0.6-2.9C611.5,69.6,610.4,69.2,609.3,68.9z"/>
<path fill="#918F8F" d="M644.4,95.7c-0.7-1.2-1.6-2.3-2.8-3.1c-1.1-0.8-2.5-1.6-3.9-2.1c-1.5-0.6-2.9-1.1-4.5-1.6
	c-1.5-0.5-3-0.9-4.5-1.4c-1.4-0.5-2.7-1-3.9-1.7c-1.1-0.6-2.1-1.4-2.8-2.3c-0.7-0.9-1.1-2.1-1.1-3.4c0-1.1,0.3-2.2,0.8-3.2
	c0.5-1,1.2-1.9,2.2-2.7c0.9-0.8,2-1.4,3.3-1.8c1.3-0.5,2.8-0.7,4.3-0.7c2.3,0,4.6,0.4,7,1.1c0.1,1.1,0.1,2.1,0.2,3
	c0.1,1,0.1,1.7,0.2,2.3c0.1,0.6,0.1,0.9,0.1,1c0.1,1.4,0.7,2.1,1.9,2.1h2.1V70.9c-4.6-1.6-8.5-2.3-11.6-2.3c-2.2,0-4.2,0.3-6,1
	c-1.8,0.6-3.3,1.5-4.6,2.6c-1.3,1.1-2.2,2.3-2.9,3.8c-0.7,1.4-1,2.9-1,4.5c0,1.8,0.4,3.3,1.1,4.6c0.7,1.2,1.6,2.3,2.8,3.1
	c1.1,0.9,2.4,1.6,3.9,2.1c1.4,0.6,2.9,1.1,4.5,1.5c1.5,0.5,3,0.9,4.5,1.4c1.5,0.5,2.7,1,3.9,1.7c1.1,0.7,2.1,1.5,2.8,2.5
	c0.7,1,1.1,2.2,1.1,3.6c0,1.3-0.3,2.6-0.7,3.8c-0.5,1.2-1.2,2.2-2.1,3.1c-0.9,0.9-2.1,1.6-3.5,2.1c-1.4,0.5-3,0.8-4.9,0.8
	c-3.3,0-6.2-0.5-8.6-1.4c-0.1-1.1-0.1-2.1-0.2-3.1c-0.1-1-0.2-1.8-0.2-2.3c-0.1-0.6-0.1-0.9-0.1-1c-0.1-1.4-0.7-2.1-1.9-2.1h-2.1
	v10.7c4.2,1.6,8.6,2.4,13,2.4c2.4,0,4.6-0.4,6.5-1.1c1.9-0.7,3.5-1.7,4.8-2.9c1.3-1.2,2.3-2.6,3-4.3c0.7-1.6,1-3.4,1-5.3
	C645.5,98.5,645.1,97,644.4,95.7z"/>
<g>
	<path fill="#C61052" d="M101.6,46.1L58.4,21.2c-2.8-1.6-7.3-1.6-10.1,0L30.1,31.7c-5.6,8.8-8.8,18.9-9.3,29.3
		c9.4-6.1,20.5-9.6,32.5-9.6c12,0,23.2,3.5,32.6,9.6c8.7,5.7,15.9,13.5,20.7,22.8v-29C106.6,51.7,104.4,47.7,101.6,46.1z"/>
	<path fill="#7A113F" d="M58.4,138.4l43.2-25c2.8-1.6,5-5.5,5-8.7l0-21c-4.8-9.2-12-17-20.7-22.7c0.6,11.2-1.9,22.6-7.9,33
		c-6,10.4-14.6,18.3-24.6,23.4c-9.3,4.7-19.7,7-30.1,6.6l25.1,14.5C51.1,140,55.6,140,58.4,138.4z"/>
	<path fill="#49182D" d="M0,54.9l0.1,49.9c0,3.2,2.3,7.1,5.1,8.7L23.4,124c10.4,0.4,20.8-1.9,30-6.7c-10-5.1-18.6-13-24.6-23.3
		c-6-10.4-8.6-21.8-8-33c0.5-10.4,3.7-20.6,9.4-29.4L5,46.1C2.3,47.7,0,51.7,0,54.9z"/>
</g>
<g>
</g>
<g>
</g>
<g>
</g>
<g>
</g>
<g>
</g>
<g>
</g>
<g>
</g>
<g>
</g>
<g>
</g>
<g>
</g>
<g>
</g>
<g>
</g>
<g>
</g>
<g>
</g>
<g>
</g>
</svg>
